<?xml version="1.0" encoding="UTF-8"?>
<svg id="Layer_1" xmlns="http://www.w3.org/2000/svg" version="1.1" viewBox="0 0 600 600">
  <!-- Generator: Adobe Illustrator 29.0.1, SVG Export Plug-In . SVG Version: 2.1.0 Build 192)  -->
  <path d="M388.4,521.8c-58.5,0-113.5-22.8-154.9-64.1s-64.1-96.4-64.1-154.9,22.8-113.5,64.1-154.9c41.4-41.4,96.4-64.1,154.9-64.1v49c-93.7,0-170,76.3-170,170s76.3,170,170,170v49Z" style="fill: #fff;"/>
  <path d="M388.4,446.9c-79.5,0-144.1-64.7-144.1-144.1s64.7-144.1,144.1-144.1v41c-56.9,0-103.1,46.3-103.1,103.1s46.3,103.1,103.1,103.1v41Z" style="fill: #fff;"/>
  <path d="M160.4,302.8c0-16.2,1.7-32,4.9-47.3V78.2h-60.7v437.1h60.7v-165.3c-3.2-15.3-4.9-31.1-4.9-47.3Z" style="fill: #fff;"/>
  <path d="M383.1,374.8c-39.7,0-72-32.3-72-72s32.3-72,72-72,72,32.3,72,72-32.3,72-72,72ZM383.1,261.7c-22.6,0-41,18.4-41,41s18.4,41,41,41,41-18.4,41-41-18.4-41-41-41Z" style="fill: #fff;"/>
  <circle cx="477.5" cy="353.5" r="17.9" style="fill: #fff;"/>
</svg>