<?xml version="1.0" encoding="UTF-8"?>
<svg id="Layer_1" xmlns="http://www.w3.org/2000/svg" version="1.1" xmlns:xlink="http://www.w3.org/1999/xlink" viewBox="0 0 100 100">
  <!-- Generator: Adobe Illustrator 29.0.1, SVG Export Plug-In . SVG Version: 2.1.0 Build 192)  -->
  <defs>
    <linearGradient id="linear-gradient" x1="50" y1="71.2" x2="50" y2="16.4" gradientUnits="userSpaceOnUse">
      <stop offset="0" stop-color="#b2e2f4"/>
      <stop offset="1" stop-color="#11bed3"/>
    </linearGradient>
    <linearGradient id="linear-gradient1" x1="28.7" y1="88.8" x2="22.2" y2="19.7" xlink:href="#linear-gradient"/>
    <linearGradient id="linear-gradient2" x1="28.1" y1="87.6" x2="21.7" y2="27.8" xlink:href="#linear-gradient"/>
    <linearGradient id="linear-gradient3" x1="-832.7" y1="88.8" x2="-839.2" y2="19.7" gradientTransform="translate(-761.4) rotate(-180) scale(1 -1)" xlink:href="#linear-gradient"/>
    <linearGradient id="linear-gradient4" x1="-833.2" y1="87.6" x2="-839.7" y2="27.8" gradientTransform="translate(-761.4) rotate(-180) scale(1 -1)" xlink:href="#linear-gradient"/>
  </defs>
  <path d="M35.8,33.7l-6.4-16.9c-.4-1,.1-2.1,1.2-2.6l18.1-8.8c.8-.4,1.8-.4,2.6,0l18.1,8.8c1.1.5,1.6,1.6,1.2,2.6l-6.4,16.9c-.5,1.2-2.1,1.9-3.5,1.4l-9.7-3.4c-.6-.2-1.4-.2-2,0l-9.7,3.4c-1.4.5-3.1-.1-3.5-1.4ZM51.1,29.8l7.7,2.8c1.6.6,3.4-.2,3.7-1.7l2.2-11.6c.2-.9-.4-1.9-1.4-2.3l-12-5.3c-.8-.3-1.7-.3-2.4,0l-12,5.3c-1,.4-1.6,1.4-1.4,2.3l2.2,11.6c.3,1.4,2.1,2.3,3.7,1.7l7.7-2.8c.7-.2,1.4-.2,2.1,0Z" style="fill: url(#linear-gradient);"/>
  <g>
    <path d="M20.9,90.8l-12.8-57.4c-.3-1.3.2-2.7,1.3-3.4,3.9-2.8,16.6-11,23.2-15.8s1.3,0,1.8,1.7l4.6,18.8-.6.2c-.8,1.4-2.6,3.9-3.1,5.5s0,.5,0,.8l2.9,43.1c0,1-.5,2-1.4,2.4l-12.4,5.9c-1.5.7-3.2-.1-3.5-1.7ZM36.1,83c-.6-8.1-2.9-42.2-2.9-42.2-.1-1.3,1.5-3.9,2.8-6s.5-1.4.3-2.1l-3-9.4c-.5-1.6-2.4-2.3-3.8-1.3-6.1,4.1-13.3,7.7-16.7,9.8s-1.4,1.6-1.2,2.7l10.7,53.4c.3,1.6,2.1,2.5,3.5,1.8l8.9-4.2c.9-.4,1.5-1.4,1.4-2.4Z" style="fill: url(#linear-gradient1);"/>
    <circle cx="23.5" cy="91.1" r="3.6" style="fill: #b6e2e8;"/>
    <path d="M24.4,91.6l-1.8-.9,12.3-23.1-20.5-7.8c-.3-.1-.6-.4-.6-.7s0-.7.3-.9l18.3-16.9-22.4-7.5.6-1.9,24,8.1c.3.1.6.4.7.7,0,.3,0,.7-.3.9l-18.4,16.9,20.1,7.7c.3.1.5.3.6.6.1.3,0,.6,0,.8l-12.9,24.1Z" style="fill: url(#linear-gradient2);"/>
    <circle cx="35.7" cy="66.7" r="3.1" style="fill: #b6e2e8;"/>
    <circle cx="15" cy="58.7" r="3" style="fill: #38c4e3;"/>
    <circle cx="34.4" cy="40.9" r="3.6" style="fill: #00bbe1;"/>
    <circle cx="10.3" cy="32.1" r="3.6" style="fill: #009fd0;"/>
  </g>
  <g>
    <path d="M75.6,92.5l-12.4-5.9c-.9-.4-1.5-1.4-1.4-2.4l2.9-43.1c0-.3,0-.5,0-.8-.4-1.5-2.3-4-3.1-5.5l-.6-.2,4.6-18.8c.5-1.6.4-2.7,1.8-1.7,6.6,4.8,19.3,13.1,23.2,15.8,1.1.8,1.6,2.1,1.3,3.4l-12.8,57.4c-.4,1.6-2.1,2.4-3.5,1.7ZM65.3,85.4l8.9,4.2c1.5.7,3.2-.2,3.5-1.8l10.7-53.4c.2-1.1-.3-2.1-1.2-2.7-3.5-2-10.6-5.7-16.7-9.8s-3.3-.3-3.8,1.3l-3,9.4c-.2.7-.1,1.5.3,2.1,1.3,2.1,2.9,4.7,2.8,6,0,0-2.3,34.1-2.9,42.2s.5,2,1.4,2.4Z" style="fill: url(#linear-gradient3);"/>
    <circle cx="76.5" cy="91.1" r="3.6" style="fill: #b6e2e8;"/>
    <path d="M75.6,91.6l1.8-.9-12.3-23.1,20.5-7.8c.3-.1.6-.4.6-.7s0-.7-.3-.9l-18.3-16.9,22.4-7.5-.6-1.9-24,8.1c-.3.1-.6.4-.7.7,0,.3,0,.7.3.9l18.4,16.9-20.1,7.7c-.3.1-.5.3-.6.6-.1.3,0,.6,0,.8l12.9,24.1Z" style="fill: url(#linear-gradient4);"/>
    <circle cx="64.3" cy="66.7" r="3.1" style="fill: #b6e2e8;"/>
    <circle cx="85" cy="58.7" r="3" style="fill: #38c4e3;"/>
    <circle cx="65.6" cy="40.9" r="3.6" style="fill: #00bbe1;"/>
    <circle cx="89.7" cy="32.1" r="3.6" style="fill: #009fd0;"/>
  </g>
</svg>