<?xml version="1.0" encoding="UTF-8"?>
<svg xmlns="http://www.w3.org/2000/svg" version="1.1" xmlns:xlink="http://www.w3.org/1999/xlink" viewBox="0 0 360 100">
  <!-- Generator: Adobe Illustrator 29.0.1, SVG Export Plug-In . SVG Version: 2.1.0 Build 192)  -->
  <defs>
    <linearGradient id="linear-gradient" x1="51.2" y1="70.2" x2="51.2" y2="19.3" gradientUnits="userSpaceOnUse">
      <stop offset="0" stop-color="#b2e2f4"/>
      <stop offset="1" stop-color="#11bed3"/>
    </linearGradient>
    <linearGradient id="linear-gradient1" x1="33.1" y1="83.1" x2="27.4" y2="23.3" xlink:href="#linear-gradient"/>
    <linearGradient id="linear-gradient2" x1="32.6" y1="82" x2="27" y2="30.3" gradientUnits="userSpaceOnUse">
      <stop offset="0" stop-color="#b2e2f4"/>
      <stop offset="1" stop-color="#11bed3"/>
    </linearGradient>
    <linearGradient id="linear-gradient3" x1="-571.3" y1="83.1" x2="-576.9" y2="23.3" gradientTransform="translate(-501.4) rotate(-180) scale(1 -1)" xlink:href="#linear-gradient"/>
    <linearGradient id="linear-gradient4" x1="-571.7" y1="82" x2="-577.4" y2="30.3" gradientTransform="translate(-501.4) rotate(-180) scale(1 -1)" xlink:href="#linear-gradient"/>
  </defs>
  <g id="Layer_2" style="display: none;">
    <image width="1402" height="1122" transform="translate(-662.3 -544.7)" xlink:href="C:\Users\chris\OneDrive\Desktop\e36242c3-b192-41c6-93e4-425fc0a0fc1b.png"/>
  </g>
  <g id="Layer_1">
    <g>
      <path d="M112.1,31.3h5.1v16l14.6-16h6.9l-17.3,18.3,18.5,20.3h-7.2l-15.6-17.7v17.7h-5.1V31.3Z" style="fill: #fff;"/>
      <path d="M144.6,32h21.5v4.8h-16.3v10.7h14.4v5h-14.4v12.3h16.9v5.1h-22V32Z" style="fill: #fff;"/>
      <path d="M181.1,52.5l-10.8-21.2h6.1l7.2,14.8,7.1-14.8h5.6l-10.2,20.6v18h-5.2v-17.4Z" style="fill: #fff;"/>
      <path d="M214.9,40.3c0-1.6-.6-2.8-1.6-3.7s-2.2-1.3-3.9-1.3-2.9.5-4,1.4c-1,.9-1.6,2.1-1.6,3.6s.4,2.3,1.3,3.2c.9,1,2.5,2.1,4.9,3.3l2.1,1c3.1,1.6,5.3,3.3,6.6,5.1s1.9,3.9,1.9,6.4-1.1,5.8-3.2,7.7c-2.2,1.9-5.1,2.9-8.7,2.9s-6-.9-7.8-2.8-2.8-4.7-2.9-8.3h5.6v.2c0,1.9.5,3.4,1.4,4.4.9,1,2.2,1.6,3.8,1.6s3.4-.5,4.6-1.6c1.2-1.1,1.8-2.4,1.8-4.1s-.4-2.6-1.2-3.5c-.8-1-2.8-2.3-6-3.9l-2.5-1.3c-2.3-1.2-4.1-2.6-5.3-4.3-1.2-1.7-1.7-3.6-1.7-5.8s1-5.4,3.2-7.3c2.1-1.9,4.9-2.8,8.3-2.8s5.5.9,7.4,2.6c1.9,1.8,2.9,4.2,3.1,7.3h-5.5Z" style="fill: #fff;"/>
      <path d="M234.9,36.7h-9.5v-5h24.3v5h-9.6v33.2h-5.2v-33.2Z" style="fill: #fff;"/>
      <path d="M277.6,50c0,5.9-1.2,10.7-3.6,14.4-2.4,3.7-5.5,5.5-9.3,5.5s-6.8-1.9-9.2-5.6c-2.4-3.7-3.7-8.5-3.7-14.4s1.2-10.7,3.7-14.4c2.4-3.7,5.5-5.5,9.2-5.5s6.8,1.8,9.3,5.5c2.4,3.7,3.6,8.5,3.6,14.4ZM264.7,64.8c2.2,0,4-1.3,5.3-4s2-6.3,2-10.9-.7-8.2-2-10.9-3.1-4-5.3-4-4,1.3-5.3,4c-1.3,2.6-2,6.3-2,10.9s.7,8.2,2,10.9c1.3,2.7,3.1,4,5.3,4Z" style="fill: #fff;"/>
      <path d="M282.3,31.3h6.2l12.8,28.8v-28.8h4.9v38.6h-6l-13.1-29.1v29.1h-4.9V31.3Z" style="fill: #fff;"/>
      <path d="M311.5,32h21.5v4.8h-16.3v10.7h14.4v5h-14.4v12.3h16.9v5.1h-22V32Z" style="fill: #fff;"/>
    </g>
    <g>
      <path d="M40.1,35.3l-5-15.8c-.3-.9,0-1.9.9-2.4l14.2-8.2c.6-.4,1.4-.4,2.1,0l14.2,8.2c.8.5,1.2,1.5.9,2.4l-5,15.8c-.4,1.2-1.6,1.7-2.8,1.3l-7.6-3.2c-.5-.2-1.1-.2-1.6,0l-7.6,3.2c-1.1.5-2.4-.1-2.8-1.3ZM52,31.7l6,2.6c1.2.5,2.7-.2,2.9-1.6l1.8-10.8c.1-.9-.3-1.8-1.1-2.2l-9.5-4.9c-.6-.3-1.3-.3-1.9,0l-9.5,4.9c-.8.4-1.2,1.3-1.1,2.2l1.8,10.8c.2,1.3,1.6,2.1,2.9,1.6l6-2.6c.5-.2,1.1-.2,1.7,0Z" style="fill: url(#linear-gradient);"/>
      <g>
        <path d="M26.3,84.8l-11.1-49.7c-.3-1.1.2-2.3,1.1-3,3.4-2.4,14.4-9.5,20.1-13.7s1.1,0,1.6,1.5l3.9,16.3-.5.2c-.7,1.2-2.3,3.4-2.6,4.7s0,.5,0,.7l2.5,37.3c0,.9-.4,1.7-1.2,2.1l-10.7,5.1c-1.3.6-2.7-.1-3.1-1.5ZM39.5,78c-.5-7-2.5-36.5-2.5-36.5-.1-1.2,1.3-3.4,2.4-5.2s.4-1.2.2-1.8l-2.6-8.2c-.4-1.4-2.1-2-3.3-1.2-5.3,3.5-11.5,6.7-14.5,8.4s-1.2,1.4-1,2.3l9.3,46.2c.3,1.4,1.8,2.1,3.1,1.5l7.7-3.6c.8-.4,1.3-1.2,1.2-2.1Z" style="fill: url(#linear-gradient1);"/>
        <circle cx="28.5" cy="85.1" r="3.1" style="fill: #b6e2e8;"/>
        <path d="M29.3,85.5l-1.5-.8,10.7-20-17.8-6.8c-.3-.1-.5-.4-.5-.6s0-.6.3-.8l15.9-14.6-19.4-6.5.6-1.6,20.8,7c.3,0,.5.3.6.6,0,.3,0,.6-.3.8l-15.9,14.6,17.4,6.6c.2,0,.4.3.5.5,0,.2,0,.5,0,.7l-11.1,20.8Z" style="fill: url(#linear-gradient2);"/>
        <circle cx="39.1" cy="64" r="2.7" style="fill: #b6e2e8;"/>
        <circle cx="21.2" cy="57.1" r="2.6" style="fill: #38c4e3;"/>
        <circle cx="38" cy="41.7" r="3.1" style="fill: #00bbe1;"/>
        <circle cx="17.1" cy="34.1" r="3.1" style="fill: #009fd0;"/>
      </g>
      <g>
        <path d="M73.6,86.3l-10.7-5.1c-.8-.4-1.3-1.2-1.2-2.1l2.5-37.3c0-.2,0-.5,0-.7-.4-1.3-2-3.5-2.6-4.7l-.5-.2,3.9-16.3c.5-1.4.4-2.3,1.6-1.5,5.7,4.2,16.7,11.3,20.1,13.7s1.4,1.8,1.1,3l-11.1,49.7c-.3,1.4-1.8,2.1-3.1,1.5ZM64.7,80.1l7.7,3.6c1.3.6,2.8-.2,3.1-1.5l9.3-46.2c.2-.9-.2-1.8-1-2.3-3-1.7-9.2-4.9-14.5-8.4s-2.8-.2-3.3,1.2l-2.6,8.2c-.2.6-.1,1.3.2,1.8,1.1,1.8,2.5,4,2.4,5.2,0,0-2,29.5-2.5,36.5,0,.9.4,1.7,1.2,2.1Z" style="fill: url(#linear-gradient3);"/>
        <circle cx="74.4" cy="85.1" r="3.1" style="fill: #b6e2e8;"/>
        <path d="M73.7,85.5l1.5-.8-10.7-20,17.8-6.8c.3-.1.5-.4.5-.6s0-.6-.3-.8l-15.9-14.6,19.4-6.5-.6-1.6-20.8,7c-.3,0-.5.3-.6.6,0,.3,0,.6.3.8l15.9,14.6-17.4,6.6c-.2,0-.4.3-.5.5,0,.2,0,.5,0,.7l11.1,20.8Z" style="fill: url(#linear-gradient4);"/>
        <circle cx="63.8" cy="64" r="2.7" style="fill: #b6e2e8;"/>
        <circle cx="81.8" cy="57.1" r="2.6" style="fill: #38c4e3;"/>
        <circle cx="64.9" cy="41.7" r="3.1" style="fill: #00bbe1;"/>
        <circle cx="85.8" cy="34.1" r="3.1" style="fill: #009fd0;"/>
      </g>
    </g>
  </g>
</svg>