<?xml version="1.0" encoding="UTF-8"?>
<svg id="Layer_1" xmlns="http://www.w3.org/2000/svg" version="1.1" viewBox="0 0 100 100">
  <!-- Generator: Adobe Illustrator 29.0.1, SVG Export Plug-In . SVG Version: 2.1.0 Build 192)  -->
  <rect x="16.1" y="46.6" width="23.2" height=".6" transform="translate(-23.1 27.3) rotate(-38.3)" style="fill: #309cd2;"/>
  <rect x="26.7" y="49.3" width=".6" height="24.7" transform="translate(-38.3 45.3) rotate(-52.3)" style="fill: #c9e3f6;"/>
  <polygon points="37.2 86.6 20.7 75.6 36.7 69 36.9 69.4 21.7 75.7 37.5 86.2 37.2 86.6" style="fill: #65cbe4;"/>
  <path d="M77,90.5l-15.3-3.8v-33c0-.3-.6-2.3-2.2-4.3-2.3-2.9-5.5-4.4-9.6-4.6-4.1-.2-7.4,1.3-9.8,4.4-1.7,2.2-2.3,4.4-2.4,4.8v32.8l-14.6,3.6L12.7,31.5l18.3-13.5h0s18.1-8.8,18.1-8.8l20.6,8.6,17.1,13.5v.3c0,0-9.9,58.8-9.9,58.8ZM13.9,32l10.1,57.2,12.6-3.1v-32.1h0c0-.2.7-2.8,2.6-5.3,1.8-2.4,5.2-5.1,10.7-4.9,5.5.3,8.7,2.9,10.4,5.1,1.8,2.3,2.3,4.6,2.4,4.7h0v32.4l13.3,3.3,9.6-57.4-16.5-13-20-8.3-17.6,8.5-17.7,13Z" style="fill: #65cbe4;"/>
  <rect x="24.8" y="23.3" width=".6" height="24.7" transform="translate(-16.8 47.9) rotate(-71)" style="fill: #dae1e5;"/>
  <polygon points="39.9 48.5 36.5 39.8 30.8 18.5 31.4 18.3 37.1 39.6 40.4 48.3 39.9 48.5" style="fill: #5792b7;"/>
  <polygon points="49.4 25.9 31.3 18.7 31.4 18.4 49.4 25.6 69 18.2 69.1 18.5 49.4 25.9" style="fill: #65cbe4;"/>
  <rect x="67.1" y="34.3" width="19.7" height=".8" transform="translate(-6.9 25.3) rotate(-17.9)" style="fill: #82d1df;"/>
  <polygon points="66.6 39 49.2 26 49.6 25.5 66.1 37.9 68.8 19.7 69.4 19.8 66.6 39" style="fill: #a7deea;"/>
  <rect x="74.6" y="36.7" width=".5" height="20.5" transform="translate(-11.1 67.2) rotate(-45.4)" style="fill: #d7eff3;"/>
  <rect x="56.5" y="42.5" width="11.7" height=".3" transform="translate(-11.5 58.8) rotate(-46.7)" style="fill: #a7deea;"/>
  <polygon points="62.8 86.7 62.5 86.2 78.3 75.7 62 69.3 81.1 54.7 81.5 55.1 63.2 69.1 79.7 75.6 62.8 86.7" style="fill: #a7deea;"/>
  <circle cx="13.4" cy="31.7" r="2.4" style="fill: #f8fcfe;"/>
  <circle cx="37.3" cy="86.4" r="2" style="fill: #65cbe4;"/>
  <circle cx="50" cy="9.7" r="2.7" style="fill: #65cbe4;"/>
  <circle cx="86.2" cy="31.7" r="2.7" style="fill: #ceecf2;"/>
  <circle cx="69.1" cy="18.4" r="2.7" style="fill: #65cbe4;"/>
  <circle cx="31.1" cy="18.4" r="2.7" style="fill: #4274b9;"/>
  <circle cx="76.7" cy="90.3" r="2.7" style="fill: #4274b9;"/>
  <circle cx="23.5" cy="89.9" r="2.7" style="fill: #4274b9;"/>
  <circle cx="21.2" cy="75.7" r="2.3" style="fill: #44c7f4;"/>
  <circle cx="66.4" cy="38.4" r="2.3" style="fill: #68acde;"/>
  <circle cx="17.2" cy="54.1" r="2.3" style="fill: #65cbe4;"/>
  <circle cx="82.1" cy="54.1" r="2.7" style="fill: #c9e3f6;"/>
  <circle cx="79" cy="75.7" r="2.3" style="fill: #69a9dc;"/>
  <circle cx="62.6" cy="86.4" r="2.3" style="fill: #c9e3f6;"/>
  <circle cx="62.2" cy="53.7" r="2" style="fill: #c9e3f6;"/>
  <circle cx="36.8" cy="39.7" r="2" style="fill: #c9e3f6;"/>
  <circle cx="49.4" cy="25.8" r="2.3" style="fill: #c9e3f6;"/>
  <circle cx="36.8" cy="69.2" r="2" style="fill: #c9e3f6;"/>
  <circle cx="37.2" cy="54" r="2" style="fill: #4274b9;"/>
</svg>