<?xml version="1.0" encoding="UTF-8"?>
<svg xmlns="http://www.w3.org/2000/svg" version="1.1" xmlns:xlink="http://www.w3.org/1999/xlink" viewBox="0 0 400 400">
  <!-- Generator: Adobe Illustrator 29.0.1, SVG Export Plug-In . SVG Version: 2.1.0 Build 192)  -->
  <defs>
    <style>
      .st0 {
        fill: url(#linear-gradient2);
      }

      .st1 {
        fill: #b6e2e8;
      }

      .st2 {
        fill: #fff;
      }

      .st3 {
        fill: url(#linear-gradient1);
      }

      .st4 {
        fill: url(#linear-gradient4);
      }

      .st5 {
        fill: #009fd0;
      }

      .st6 {
        fill: #00bbe1;
      }

      .st7 {
        fill: url(#linear-gradient3);
      }

      .st8 {
        fill: #38c4e3;
      }

      .st9 {
        fill: url(#linear-gradient);
      }
    </style>
    <linearGradient id="linear-gradient" x1="200" y1="209.9" x2="200" y2="72.5" gradientUnits="userSpaceOnUse">
      <stop offset="0" stop-color="#b2e2f4"/>
      <stop offset="1" stop-color="#11bed3"/>
    </linearGradient>
    <linearGradient id="linear-gradient1" x1="146.5" y1="254.2" x2="130.1" y2="80.8" xlink:href="#linear-gradient"/>
    <linearGradient id="linear-gradient2" x1="145.1" y1="251.2" x2="128.8" y2="101.1" xlink:href="#linear-gradient"/>
    <linearGradient id="linear-gradient3" x1="-714.8" y1="254.2" x2="-731.3" y2="80.8" gradientTransform="translate(-461.4) rotate(-180) scale(1 -1)" xlink:href="#linear-gradient"/>
    <linearGradient id="linear-gradient4" x1="-716.3" y1="251.2" x2="-732.5" y2="101.1" gradientTransform="translate(-461.4) rotate(-180) scale(1 -1)" xlink:href="#linear-gradient"/>
  </defs>
  <g id="Layer_1">
    <g>
      <path class="st2" d="M42.8,314.5h6.4v18.8l18.3-18.8h8.7l-21.6,21.4,23.1,23.8h-9l-19.4-20.8v20.8h-6.4v-45.2Z"/>
      <path class="st2" d="M85.9,314.9h26.8v5.6h-20.4v12.5h17.9v5.9h-17.9v14.4h21.1v6h-27.5v-44.4Z"/>
      <path class="st2" d="M136.1,339.3l-13.5-24.8h7.7l9,17.4,8.9-17.4h7l-12.8,24.1v21.1h-6.4v-20.4Z"/>
      <path class="st2" d="M186.6,325.6c-.1-1.8-.8-3.2-1.9-4.3s-2.8-1.6-4.8-1.6-3.6.6-4.9,1.7c-1.3,1.1-1.9,2.5-1.9,4.2s.6,2.7,1.7,3.8c1.1,1.1,3.2,2.4,6.2,3.9l2.6,1.2c3.9,1.9,6.6,3.9,8.2,6s2.4,4.5,2.4,7.5-1.3,6.8-4,9c-2.7,2.2-6.3,3.3-10.9,3.3s-7.5-1.1-9.7-3.3-3.5-5.4-3.6-9.7h7v.2c0,2.2.6,3.9,1.7,5.2,1.1,1.2,2.7,1.8,4.8,1.8s4.2-.6,5.7-1.9c1.5-1.3,2.2-2.8,2.2-4.8s-.5-3-1.5-4.1c-1-1.1-3.5-2.6-7.5-4.6l-3.2-1.6c-2.9-1.4-5.1-3.1-6.6-5-1.5-2-2.2-4.2-2.2-6.8s1.3-6.3,3.9-8.5c2.6-2.2,6.1-3.3,10.3-3.3s6.9,1,9.2,3.1c2.3,2.1,3.6,4.9,3.9,8.5h-6.9Z"/>
      <path class="st2" d="M217,320.8h-11.9v-5.9h30.3v5.9h-12v38.9h-6.4v-38.9Z"/>
      <path class="st2" d="M276.8,337.1c0,6.9-1.5,12.5-4.6,16.8-3,4.3-6.9,6.5-11.6,6.5s-8.5-2.2-11.5-6.5c-3.1-4.3-4.6-9.9-4.6-16.8s1.5-12.5,4.6-16.8c3.1-4.3,6.9-6.5,11.5-6.5s8.5,2.2,11.6,6.5c3,4.3,4.6,9.9,4.6,16.8ZM260.6,354.4c2.7,0,5-1.6,6.6-4.7s2.5-7.4,2.5-12.7-.8-9.6-2.5-12.7-3.9-4.7-6.7-4.7-5,1.5-6.6,4.6c-1.7,3.1-2.5,7.3-2.5,12.7s.8,9.6,2.5,12.7c1.7,3.1,3.9,4.7,6.6,4.7Z"/>
      <path class="st2" d="M286.1,314.5h7.8l16,33.7v-33.7h6.1v45.2h-7.5l-16.3-34v34h-6.1v-45.2Z"/>
      <path class="st2" d="M328.6,314.9h26.8v5.6h-20.4v12.5h17.9v5.9h-17.9v14.4h21.1v6h-27.5v-44.4Z"/>
    </g>
  </g>
  <g id="Layer_2">
    <g>
      <path class="st9" d="M164.3,115.9l-16.1-42.6c-.9-2.5.3-5.2,3-6.5l45.4-22.1c2-1,4.6-1,6.6,0l45.4,22.1c2.7,1.3,3.9,4,3,6.5l-16.1,42.6c-1.2,3.1-5.3,4.7-8.8,3.5l-24.3-8.5c-1.6-.6-3.5-.6-5.1,0l-24.3,8.5c-3.6,1.3-7.7-.3-8.8-3.5ZM202.6,106.1l19.3,7.1c4,1.5,8.5-.6,9.2-4.2l5.6-29.2c.5-2.4-.9-4.7-3.5-5.8l-30.2-13.3c-1.9-.8-4.2-.8-6.1,0l-30.2,13.3c-2.5,1.1-3.9,3.5-3.5,5.8l5.6,29.2c.7,3.6,5.2,5.7,9.2,4.2l19.3-7.1c1.7-.6,3.6-.6,5.3,0Z"/>
      <g>
        <path class="st3" d="M126.8,259.2l-32.2-144.2c-.7-3.3.6-6.7,3.3-8.6,9.9-7,41.8-27.7,58.4-39.8,3.5-2.5,3.3.1,4.6,4.2l11.5,47.2-1.5.5c-2,3.6-6.6,9.9-7.7,13.7-.2.7-.2,1.3-.2,2l7.4,108.3c.2,2.6-1.2,5-3.6,6.1l-31.2,14.8c-3.7,1.7-8-.4-8.9-4.3ZM165.2,239.6c-1.4-20.3-7.2-105.9-7.2-105.9-.4-3.4,3.8-9.9,7-15,1-1.6,1.2-3.5.7-5.2l-7.5-23.7c-1.3-4-6-5.7-9.5-3.3-15.4,10.3-33.3,19.4-42,24.5-2.3,1.4-3.5,4-3,6.7l26.9,134.2c.8,4,5.2,6.2,8.9,4.5l22.2-10.5c2.3-1.1,3.8-3.5,3.6-6.1Z"/>
        <circle class="st1" cx="133.4" cy="260" r="8.9"/>
        <path class="st0" d="M135.6,261.2l-4.4-2.4,31-58-51.6-19.7c-.8-.3-1.4-1-1.6-1.9s.1-1.7.8-2.3l46-42.4-56.3-18.9,1.6-4.8,60.4,20.3c.8.3,1.5,1,1.7,1.9.2.9-.1,1.8-.8,2.4l-46.2,42.5,50.5,19.3c.7.3,1.2.8,1.5,1.5.3.7.2,1.4-.1,2.1l-32.4,60.5Z"/>
        <circle class="st1" cx="164.1" cy="198.8" r="7.8"/>
        <circle class="st8" cx="112" cy="178.7" r="7.6"/>
        <circle class="st6" cx="160.9" cy="134" r="8.9"/>
        <circle class="st5" cx="100.3" cy="111.9" r="8.9"/>
      </g>
      <g>
        <path class="st7" d="M264.3,263.5l-31.2-14.8c-2.3-1.1-3.8-3.5-3.6-6.1l7.4-108.3c0-.7,0-1.4-.2-2-1.1-3.8-5.7-10.1-7.7-13.7l-1.5-.5,11.5-47.2c1.3-4.1,1.1-6.8,4.6-4.2,16.6,12.1,48.4,32.8,58.4,39.8,2.7,1.9,4.1,5.3,3.3,8.6l-32.2,144.2c-.9,4-5.2,6.1-8.9,4.3ZM238.4,245.7l22.2,10.5c3.7,1.8,8.1-.4,8.9-4.5l26.9-134.2c.5-2.7-.7-5.3-3-6.7-8.7-5.1-26.6-14.2-42-24.5-3.5-2.3-8.2-.6-9.5,3.3l-7.5,23.7c-.6,1.8-.3,3.7.7,5.2,3.2,5.2,7.4,11.7,7,15,0,0-5.8,85.6-7.2,105.9-.2,2.6,1.2,5,3.6,6.1Z"/>
        <circle class="st1" cx="266.6" cy="260" r="8.9"/>
        <path class="st4" d="M264.4,261.2l4.4-2.4-31-58,51.6-19.7c.8-.3,1.4-1,1.6-1.9s-.1-1.7-.8-2.3l-46-42.4,56.3-18.9-1.6-4.8-60.4,20.3c-.8.3-1.5,1-1.7,1.9-.2.9.1,1.8.8,2.4l46.2,42.5-50.5,19.3c-.7.3-1.2.8-1.5,1.5-.3.7-.2,1.4.1,2.1l32.4,60.5Z"/>
        <circle class="st1" cx="235.9" cy="198.8" r="7.8"/>
        <circle class="st8" cx="288" cy="178.7" r="7.6"/>
        <circle class="st6" cx="239.1" cy="134" r="8.9"/>
        <circle class="st5" cx="299.7" cy="111.9" r="8.9"/>
      </g>
    </g>
  </g>
</svg>